<svg xmlns="http://www.w3.org/2000/svg" width="21" height="19" fill="none"><path d="M19.154 9.338c2.14-2.14 2.14-5.615 0-7.733a5.49 5.49 0 0 0-7.755 0l-1.038 1.06-1.038-1.038c-2.14-2.16-5.615-2.16-7.734-.02C.55 2.643 0 4.02 0 5.482a5.52 5.52 0 0 0 1.589 3.877l8.772 8.77 8.793-8.793zM1.356 5.482a3.97 3.97 0 0 1 1.208-2.881c.805-.805 1.843-1.208 2.882-1.208s2.076.403 2.882 1.208l2.034 2.013 2.034-2.034C13.984 1 16.6 1 18.158 2.58c.763.763 1.208 1.78 1.208 2.88a3.97 3.97 0 0 1-1.208 2.881L10.36 16.16 2.564 8.364c-.763-.784-1.208-1.8-1.208-2.88z" fill="#000"/></svg>