<svg xmlns="http://www.w3.org/2000/svg" width="143" height="34" fill="#fff"><path d="M.876 6.818V33h3.76V14.04h.243L12.6 32.96h3.12l7.722-18.908h.243V33h3.76V6.818h-4.794l-8.34 20.352h-.307L5.67 6.818H.876zM42 33.396c4.283 0 7.313-2.1 8.182-5.305l-3.618-.652c-.7 1.854-2.352 2.8-4.526 2.8-3.273 0-5.472-2.122-5.574-5.906h13.96v-1.355c0-7.095-4.244-9.87-8.693-9.87-5.472 0-9.077 4.168-9.077 10.202 0 6.098 3.554 10.087 9.345 10.087zM36.487 21.47c.153-2.787 2.173-5.203 5.28-5.203 2.966 0 4.9 2.2 4.922 5.203H36.487zM69.4 18.158c-.793-3.055-3.183-5.05-7.428-5.05-4.436 0-7.58 2.34-7.58 5.817 0 2.787 1.688 4.64 5.37 5.46l3.324.73c1.892.422 2.774 1.266 2.774 2.493 0 1.52-1.624 2.7-4.13 2.7-2.288 0-3.76-.984-4.22-2.915l-3.695.563c.64 3.477 3.528 5.433 7.94 5.433 4.743 0 8.028-2.518 8.028-6.072 0-2.774-1.764-4.487-5.37-5.318l-3.12-.716c-2.16-.5-3.094-1.24-3.08-2.57-.013-1.5 1.624-2.582 3.797-2.582 2.378 0 3.477 1.317 3.925 2.634l3.465-.614zm13.742-4.794h-4.027V8.66h-3.822v4.705h-2.876v3.068h2.876v11.595c-.013 3.567 2.7 5.293 5.727 5.23 1.214-.013 2.033-.243 2.48-.4l-.7-3.158c-.256.05-.73.166-1.342.166-1.24 0-2.352-.4-2.352-2.62V16.432h4.027v-3.068zM95.43 33.396c5.535 0 9.153-4.052 9.153-10.125 0-6.1-3.618-10.163-9.153-10.163s-9.153 4.052-9.153 10.163c0 6.073 3.618 10.125 9.153 10.125zm.013-3.2c-3.618 0-5.305-3.158-5.305-6.93 0-3.76 1.688-6.955 5.305-6.955 3.592 0 5.28 3.196 5.28 6.955 0 3.77-1.687 6.93-5.28 6.93zM108.057 9h1.057V5.6h1.9l.22-.004L113.085 9h1.228l-1.973-3.605c1.112-.38 1.632-1.287 1.632-2.446 0-1.543-.92-2.676-2.966-2.676h-2.95V9zm1.057-4.364V1.2h1.858c1.414 0 1.96.7 1.96 1.74s-.546 1.688-1.943 1.688h-1.875zm10.606 1.688c0 1.227-.937 1.8-1.687 1.8-.835 0-1.432-.614-1.432-1.568v-4.1h-1.006v4.16c0 1.67.887 2.472 2.114 2.472 1 0 1.636-.528 1.943-1.193h.068V9h1.006V2.455h-1.006v3.87zm7.485-2.404c-.315-.93-1.022-1.55-2.318-1.55-1.38 0-2.403.784-2.403 1.892 0 .903.537 1.5 1.738 1.8l1.1.256c.66.153.972.47.972.92 0 .563-.597 1.023-1.534 1.023-.823 0-1.338-.354-1.517-1.057l-.955.24c.235 1.112 1.15 1.705 2.5 1.705 1.52 0 2.557-.83 2.557-1.96 0-.912-.57-1.487-1.74-1.773l-.972-.24c-.775-.192-1.125-.452-1.125-.955 0-.562.597-.972 1.398-.972.878 0 1.24.486 1.415.938l.903-.256zm6.27 0c-.316-.93-1.023-1.55-2.318-1.55-1.38 0-2.404.784-2.404 1.892 0 .903.537 1.5 1.74 1.8l1.1.256c.66.153.97.47.97.92 0 .563-.596 1.023-1.534 1.023-.822 0-1.338-.354-1.517-1.057l-.954.24c.234 1.112 1.15 1.705 2.488 1.705 1.522 0 2.557-.83 2.557-1.96 0-.912-.57-1.487-1.738-1.773l-.972-.24c-.776-.192-1.125-.452-1.125-.955 0-.562.597-.972 1.398-.972.877 0 1.24.486 1.414.938l.904-.256zM135.108 9h1.006V2.455h-1.006V9zm.5-7.636c.392 0 .716-.307.716-.682S136 0 135.62 0s-.716.307-.716.682.324.682.716.682zm4.264 7.79c1.142 0 1.738-.614 1.943-1.04h.05V9h1.006V4.688c0-2.08-1.585-2.318-2.42-2.318-.988 0-2.113.34-2.625 1.534l.955.34c.22-.477.746-1 1.704-1 .925 0 1.38.5 1.38 1.33v.034c0 .486-.494.443-1.687.597-1.215.158-2.54.426-2.54 1.926 0 1.278.988 2 2.233 2zm.153-.903c-.8 0-1.38-.358-1.38-1.057 0-.767.698-1.006 1.482-1.108.427-.05 1.57-.17 1.74-.375v.92c0 .818-.648 1.62-1.84 1.62z"/></svg>